HIERARCHY
ROOT Hips
{
	OFFSET 0.000000 0.000000 0.000000
	CHANNELS 6 Xposition Yposition Zposition Xrotation Yrotation Zrotation
	JOINT LeftUpLeg_virtual
	{
		OFFSET 0.000000 0.000000 0.000000
		CHANNELS 3 Xrotation Yrotation Zrotation
		JOINT LeftUpLeg
		{
			OFFSET 10.205400 -3.823500 0.155100
			CHANNELS 3 Xrotation Yrotation Zrotation
			JOINT LeftLeg
			{
				OFFSET 0.708757 -12.982077 0.567790
				CHANNELS 3 Xrotation Yrotation Zrotation
				JOINT LeftFoot
				{
					OFFSET -0.708756 -10.717838 -2.184338
					CHANNELS 3 Xrotation Yrotation Zrotation
					JOINT LeftToeBase
					{
						OFFSET 0.108149 -7.191104 7.560241
						CHANNELS 3 Xrotation Yrotation Zrotation
						JOINT LeftToe_End
						{
							OFFSET 0.070230 0.081724 4.490308
							CHANNELS 3 Xrotation Yrotation Zrotation
							End Site
							{
								OFFSET 0 0 0
							}
						}
					}
				}
			}
		}
	}
	JOINT RightUpLeg_virtual
	{
		OFFSET 0.000000 0.000000 0.000000
		CHANNELS 3 Xrotation Yrotation Zrotation
		JOINT RightUpLeg
		{
			OFFSET -10.205400 -3.823500 0.005500
			CHANNELS 3 Xrotation Yrotation Zrotation
			JOINT RightLeg
			{
				OFFSET -0.708756 -12.982134 0.610632
				CHANNELS 3 Xrotation Yrotation Zrotation
				JOINT RightFoot
				{
					OFFSET 0.708754 -10.717769 -1.945823
					CHANNELS 3 Xrotation Yrotation Zrotation
					JOINT RightToeBase
					{
						OFFSET -0.108140 -7.191069 7.372968
						CHANNELS 3 Xrotation Yrotation Zrotation
						JOINT RightToe_End
						{
							OFFSET -0.070227 0.081735 4.479403
							CHANNELS 3 Xrotation Yrotation Zrotation
							End Site
							{
								OFFSET 0 0 0
							}
						}
					}
				}
			}
		}
	}
	JOINT Spine_virtual
	{
		OFFSET 0.000000 0.000000 0.000000
		CHANNELS 3 Xrotation Yrotation Zrotation
		JOINT Spine
		{
			OFFSET 0.000000 6.876099 0.125700
			CHANNELS 3 Xrotation Yrotation Zrotation
			JOINT Spine1
			{
				OFFSET 0.000000 5.730043 0.104720
				CHANNELS 3 Xrotation Yrotation Zrotation
				JOINT Spine1_split
				{
					OFFSET 0.000000 5.730043 0.104720
					CHANNELS 3 Xrotation Yrotation Zrotation
					JOINT Spine2
					{
						OFFSET 0.000000 5.730043 0.104720
						CHANNELS 3 Xrotation Yrotation Zrotation
						JOINT Neck_virtual
						{
							OFFSET 0.000000 0.000000 0.000000
							CHANNELS 3 Xrotation Yrotation Zrotation
							JOINT Neck
							{
								OFFSET 0.000000 10.314075 0.188496
								CHANNELS 3 Xrotation Yrotation Zrotation
								JOINT Head
								{
									OFFSET 0.000000 7.643700 -2.377400
									CHANNELS 3 Xrotation Yrotation Zrotation
									JOINT HeadTop_End
									{
										OFFSET 0.000000 43.788605 -13.619600
										CHANNELS 3 Xrotation Yrotation Zrotation
										End Site
										{
											OFFSET 0 0 0
										}
									}
								}
							}
						}
						JOINT LeftShoulder_virtual
						{
							OFFSET 0.000000 0.000000 0.000000
							CHANNELS 3 Xrotation Yrotation Zrotation
							JOINT LeftShoulder
							{
								OFFSET 2.196100 4.412489 0.087492
								CHANNELS 3 Xrotation Yrotation Zrotation
								JOINT LeftShoulder_split
								{
									OFFSET 2.196100 4.412489 0.087492
									CHANNELS 3 Xrotation Yrotation Zrotation
									JOINT LeftArm
									{
										OFFSET 8.771219 -2.981674 -0.026999
										CHANNELS 3 Xrotation Yrotation Zrotation
										JOINT LeftForeArm
										{
											OFFSET 8.512804 0.000000 -0.000000
											CHANNELS 3 Xrotation Yrotation Zrotation
											JOINT LeftHand
											{
												OFFSET 18.484802 0.000000 -0.000000
												CHANNELS 3 Xrotation Yrotation Zrotation
												End Site
												{
													OFFSET 0 0 0
												}
											}
										}
									}
								}
							}
						}
						JOINT RightShoulder_virtual
						{
							OFFSET 0.000000 0.000000 0.000000
							CHANNELS 3 Xrotation Yrotation Zrotation
							JOINT RightShoulder
							{
								OFFSET -2.196100 4.412496 0.070690
								CHANNELS 3 Xrotation Yrotation Zrotation
								JOINT RightShoulder_split
								{
									OFFSET -2.196100 4.412496 0.070690
									CHANNELS 3 Xrotation Yrotation Zrotation
									JOINT RightArm
									{
										OFFSET -8.771282 -2.981682 -0.094208
										CHANNELS 3 Xrotation Yrotation Zrotation
										JOINT RightForeArm
										{
											OFFSET -8.494598 0.000000 0.000000
											CHANNELS 3 Xrotation Yrotation Zrotation
											JOINT RightHand
											{
												OFFSET -18.483803 0.000000 0.000001
												CHANNELS 3 Xrotation Yrotation Zrotation
												End Site
												{
													OFFSET 0 0 0
												}
											}
										}
									}
								}
							}
						}
					}
				}
			}
		}
	}
}
MOTION
Frames: 5
Frame Time: 0.03333333
0.631630 29.859371 4.208205 0.000000 0.000000 0.000000 -14.698897 -19.445132 -5.722428 -101.339646 3.545414 33.247981 124.323786 -16.982746 0.871211 -39.074939 -9.969483 36.296032 -32.513678 -0.329032 -10.729521 0.000000 0.000000 0.000000 -14.559054 -24.100924 -6.450048 -117.398999 -8.618355 -22.427093 132.545066 20.684839 -6.802281 0.151832 -10.501322 4.896241 -26.693834 15.695744 16.915658 0.000000 0.000000 0.000000 -10.877968 -24.416389 -6.969942 3.850953 7.905681 0.415996 14.691368 1.900766 -1.587747 0.487498 -13.880573 2.102150 0.000000 0.000000 0.000000 20.501228 1.411903 -1.086111 -25.958163 -1.565295 -4.598111 -9.624373 12.246440 3.397347 0.000000 0.000000 0.000000 16.376868 1.845448 -1.212178 2.267381 -3.954819 39.589279 1.072671 -3.689231 0.050187 -47.510150 -27.590821 -8.415567 -19.135422 -36.010403 0.525397 0.000000 0.000000 0.000000 15.829730 1.205131 -0.966027 10.895478 19.776862 -36.009696 6.653493 3.621551 -0.725130 -55.690641 21.591478 12.378250 -16.163231 39.068235 5.791806 0.000000 0.000000 0.000000 
0.423217 29.236328 4.245413 0.000000 0.000000 0.000000 -16.693822 -18.883817 -6.000300 -103.411858 4.089881 32.909638 125.512840 -17.400452 1.227144 -37.001105 -8.664344 34.063953 -35.578541 -0.898283 -9.177504 0.000000 0.000000 0.000000 -16.667203 -22.105977 -6.756335 -118.630359 -6.786834 -21.940161 133.022770 20.826177 -6.067359 2.690602 -10.645028 4.882556 -27.426333 14.302610 18.822763 0.000000 0.000000 0.000000 -13.481075 -24.016267 -7.348694 4.002047 7.329471 0.592707 14.643309 1.863426 -1.374859 0.933858 -10.608319 2.931640 0.000000 0.000000 0.000000 20.130466 1.243236 -0.878862 -24.522380 -1.047028 -4.138896 -9.131730 13.275225 3.463690 0.000000 0.000000 0.000000 16.460054 1.692096 -0.810794 2.295936 -4.255409 39.853153 -0.949511 -3.538117 0.952617 -51.018778 -26.918090 -7.618941 -19.188518 -34.089863 1.400247 0.000000 0.000000 0.000000 15.228670 0.876675 -0.903861 10.887477 21.133447 -35.747178 6.622218 -0.216691 -0.226962 -58.246064 19.389782 13.006473 -18.571332 42.110845 7.394575 0.000000 0.000000 0.000000 
0.189673 28.599775 4.387428 0.000000 0.000000 0.000000 -18.951796 -18.085902 -6.302719 -104.967290 4.871811 33.117282 126.450994 -17.963152 2.252974 -31.818231 -6.656997 30.919020 -41.113723 -1.593247 -7.867872 0.000000 0.000000 0.000000 -19.712805 -19.692970 -7.074463 -118.172299 -4.035730 -22.355447 133.165835 20.417831 -5.179155 5.198057 -10.488750 3.573966 -27.517669 13.195725 21.938754 0.000000 0.000000 0.000000 -16.462171 -22.948835 -7.888251 4.242797 6.275677 0.684766 14.012218 1.614218 -0.905626 5.387258 -7.278157 3.703828 0.000000 0.000000 0.000000 18.890280 1.040718 -0.519994 -23.047206 -0.645563 -3.018970 -8.852179 13.654160 2.982680 0.000000 0.000000 0.000000 15.328903 1.418664 -0.214705 2.483951 -4.942528 40.551236 -1.522148 -3.913499 1.579889 -55.882668 -24.786821 -9.342508 -18.937797 -34.525459 2.246249 0.000000 0.000000 0.000000 13.741672 0.484622 -0.595396 10.575881 22.306337 -35.219218 6.423235 -3.499586 0.801639 -58.866573 18.108508 12.610830 -21.567308 45.109336 8.570642 0.000000 0.000000 0.000000 
0.113052 28.300615 4.490941 0.000000 0.000000 0.000000 -21.309263 -16.937720 -6.406718 -104.993320 5.923410 34.263419 125.705848 -18.470029 2.932457 -25.806606 -4.610134 27.923912 -47.175403 -2.008149 -7.707699 0.000000 0.000000 0.000000 -22.923242 -17.053478 -7.145681 -115.595419 -0.941690 -23.623225 132.206794 19.718968 -4.503994 7.159255 -9.723602 1.809282 -28.049664 12.492723 25.634089 0.000000 0.000000 0.000000 -19.396853 -21.502870 -8.431393 4.859036 4.976285 0.734513 13.274450 1.242586 -0.344162 8.258704 -2.085198 2.660328 0.000000 0.000000 0.000000 17.302551 0.849109 -0.097447 -22.044154 -0.635202 -1.397755 -8.782337 13.456004 2.046315 0.000000 0.000000 0.000000 13.848296 1.024838 0.434121 2.741771 -5.778689 41.057626 -0.988065 -4.079559 2.322574 -60.371052 -21.559789 -12.940849 -18.512155 -36.166207 3.043962 0.000000 0.000000 0.000000 12.112968 0.145460 -0.074384 10.212285 23.253960 -34.653832 5.763562 -4.654812 1.358081 -57.497509 17.900635 12.439006 -24.097778 48.035221 8.815066 0.000000 0.000000 0.000000 
0.146282 28.481089 4.334902 0.000000 0.000000 0.000000 -24.282759 -16.090939 -6.457007 -102.747417 6.693039 35.666821 123.093014 -19.600268 3.657650 -19.182569 -2.423385 23.311724 -53.413503 -1.968486 -8.225670 0.000000 0.000000 0.000000 -26.164715 -14.253737 -6.835843 -110.368071 1.576997 -25.485695 129.995097 18.953556 -4.223504 8.971529 -8.232047 0.091773 -31.246230 11.785932 29.406737 0.000000 0.000000 0.000000 -22.262276 -19.940512 -8.771372 5.902281 3.769864 0.821416 12.945190 0.783175 0.209564 8.986534 1.929543 1.423384 0.000000 0.000000 0.000000 16.193494 0.639235 0.291792 -21.787272 -1.309570 0.344586 -8.422634 12.958896 0.889544 0.000000 0.000000 0.000000 12.891349 0.608066 0.973138 2.924666 -6.412639 40.883617 0.665389 -3.564313 3.397538 -63.962030 -17.718443 -17.608678 -18.267686 -37.313412 3.828936 0.000000 0.000000 0.000000 11.207256 -0.073383 0.563537 9.779093 23.844441 -34.344995 5.081536 -3.522233 1.517779 -54.980164 18.520609 13.103903 -25.093555 50.262788 7.487577 0.000000 0.000000 0.000000 
